# xmcd
#
# Track frame offsets: 
#        150
#        12212
#        24432
#        36452
#        48800
#        60085
#        70395
#        81722
#        93482
#        103367
#        113157
#        122895
#        134262
#        146752
#        156872
#        168170
#        179330
#        188630
#        201942
#
# Disc length: 2865 seconds
#
# Revision: 0
# Processed by: cddbd v1.5.2PL0 Copyright (c) Steve Scherf et al.
# Submitted via: ExactAudioCopy v0.95b4
#
DISCID=0d0b2f13
DTITLE=DOTTIE WEST - A LEGEND IN MY TIME 1967-THE SOUND OF COUNTRY MUS
DTITLE=IC 1971
DYEAR=2006
DGENRE=country
TTITLE0=A LEGEND IN MY OWN TIME
TTITLE1=DON'T YOU EVER GET TIRED OF HURTING ME
TTITLE2=FUNNY, FAMILIAR, FORGOTTEN FEELINGS
TTITLE3=THERE GOES MY EVERYTHING
TTITLE4=GETTIN' MARRIED HAS MADE US STRANGERS
TTITLE5=NO SIGN OF LIVING
TTITLE6=HAPPINESS LIVES NEXT DOOR
TTITLE7=LONELY AGAIN
TTITLE8=YOU'RE THE ONLY WORLD I KNOW
TTITLE9=YOU AIN'T WOMAN ENOUGH
TTITLE10=TOGETHER AGAIN
TTITLE11=PICK ME UP ON YOUR WAY DOWN
TTITLE12=SOMEONE BEFORE ME
TTITLE13=I DON'T HURT ANYMORE
TTITLE14=HEARTACHES BY THE NUMBER
TTITLE15=CITY LIGHTS
TTITLE16=SLOWLY
TTITLE17=CRAZY ARMS
TTITLE18=I MISS YOU ALREADY
EXTD=
EXTT0=
EXTT1=
EXTT2=
EXTT3=
EXTT4=
EXTT5=
EXTT6=
EXTT7=
EXTT8=
EXTT9=
EXTT10=
EXTT11=
EXTT12=
EXTT13=
EXTT14=
EXTT15=
EXTT16=
EXTT17=
EXTT18=
PLAYORDER=
